<svg id="Layer_1" data-name="Layer 1" xmlns="http://www.w3.org/2000/svg" viewBox="0 0 532.29 59.47"><defs><style>.cls-1,.cls-2{fill:#02648b;}.cls-2{stroke:#02648b;stroke-linecap:round;stroke-width:3px;}.cls-2,.cls-4{stroke-miterlimit:10;}.cls-3{fill:#00648b;}.cls-4{fill:none;stroke:#00648b;}</style></defs><path class="cls-1" d="M63.14,66.52H58.21V27.87H43.72v-4.5H77.63v4.5H63.14Z" transform="translate(-43.72 -21.37)"/><path class="cls-1" d="M81.87,27.69V22.44h5.42v5.25Zm.3,38.83V34.65h4.75V66.52Z" transform="translate(-43.72 -21.37)"/><path class="cls-1" d="M100.47,66.52H95.72V34.65h4.75V40.2A12.06,12.06,0,0,1,111.38,34c7.71,0,12.21,5.18,12.21,12.76V66.52h-4.75V47.9c0-5.91-3.21-9.61-8.82-9.61s-9.55,4-9.55,10Z" transform="translate(-43.72 -21.37)"/><path class="cls-1" d="M134,80.84c1.63-4.75,4.2-9.5,6-14.67L127.33,34.65h5.24L142.16,60l9.23-25.34h5.06S140.21,75.2,138.28,80.84Z" transform="translate(-43.72 -21.37)"/><path class="cls-1" d="M195.33,66.52V38.35L183.19,56.78h-.25l-12-18.25v28h-9.31V23.37h10.23l11.35,18.25,11.34-18.25h10.23V66.52Z" transform="translate(-43.72 -21.37)"/><path class="cls-1" d="M229.11,67.26c-10.23,0-17.82-7.58-17.82-17.07v-.13c0-9.49,7.65-17.2,17.94-17.2s17.82,7.59,17.82,17.08v.12C247.05,59.56,239.4,67.26,229.11,67.26Zm8.69-17.2c0-4.87-3.51-9.12-8.69-9.12-5.36,0-8.57,4.13-8.57,9v.12c0,4.87,3.51,9.13,8.69,9.13,5.37,0,8.57-4.13,8.57-9Z" transform="translate(-43.72 -21.37)"/><path class="cls-1" d="M272.26,67.14A12.71,12.71,0,0,1,262,62.21v4.31h-9.37v-45H262V38.23a12.13,12.13,0,0,1,10.3-5.37c7.7,0,15,6,15,17.08v.12C287.3,61.1,280.09,67.14,272.26,67.14Zm5.67-17.2c0-5.49-3.7-9.12-8.08-9.12s-8,3.63-8,9.12v.12c0,5.49,3.64,9.13,8,9.13s8.08-3.58,8.08-9.13Z" transform="translate(-43.72 -21.37)"/><path class="cls-1" d="M293.15,29.84V21.52H303v8.32Zm.25,36.68v-33h9.37v33Z" transform="translate(-43.72 -21.37)"/><path class="cls-1" d="M310.78,66.52v-45h9.37v45Z" transform="translate(-43.72 -21.37)"/><path class="cls-1" d="M358.43,53.27h-23c.92,4.25,3.88,6.47,8.07,6.47,3.15,0,5.43-1,8-3.39l5.36,4.75a16.52,16.52,0,0,1-13.5,6.16c-9.92,0-17.26-7-17.26-17.07v-.13c0-9.43,6.72-17.2,16.34-17.2,11,0,16.09,8.57,16.09,17.94v.13C358.56,51.85,358.49,52.4,358.43,53.27Zm-16-12.89c-3.89,0-6.41,2.78-7.15,7h14.11C348.88,43.22,346.41,40.38,342.47,40.38Z" transform="translate(-43.72 -21.37)"/><path class="cls-1" d="M395.91,66.52,383.4,49.75H371.07V66.52H366.2V23.37h18.55c9.5,0,15.6,5.12,15.6,12.88,0,7.22-4.93,11.41-11.71,12.64l13.25,17.63ZM384.38,27.87H371.07V45.38h13.25c6.47,0,11.1-3.33,11.1-8.94C395.42,31.08,391.35,27.87,384.38,27.87Z" transform="translate(-43.72 -21.37)"/><path class="cls-1" d="M420.66,73.16a16.34,16.34,0,0,1-16.52-16.58,16.62,16.62,0,1,1,16.52,16.58Zm0-29.09c-6.9,0-11.65,5.48-11.65,12.39s5.06,12.45,11.78,12.45c6.9,0,11.71-5.49,11.71-12.33S427.38,44.07,420.66,44.07Z" transform="translate(-43.72 -21.37)"/><path class="cls-1" d="M459.65,67.2c-5.91,0-9.74-3.21-12.2-6.78v6.1H442.7v-45h4.75V41.06C450,37.24,453.8,34,459.65,34c7.65,0,15.23,6,15.23,16.59S467.36,67.2,459.65,67.2Zm-.86-29c-5.92,0-11.53,4.93-11.53,12.33S452.87,63,458.79,63C465,63,470,58.38,470,50.62,470,43,464.83,38.23,458.79,38.23Z" transform="translate(-43.72 -21.37)"/><path class="cls-1" d="M496,73.16a16.34,16.34,0,0,1-16.52-16.58A16.61,16.61,0,1,1,496,73.16Zm0-29.09c-6.91,0-11.65,5.48-11.65,12.39s5.05,12.45,11.77,12.45c6.91,0,11.71-5.49,11.71-12.33S502.67,44.07,496,44.07Z" transform="translate(-43.72 -21.37)"/><path class="cls-1" d="M523.4,57.46c0,3.88,2.16,5.3,5.36,5.3a10,10,0,0,0,4.63-1.11v4.07a12,12,0,0,1-5.74,1.36c-5.11,0-9-2.53-9-9V38.84h-4.44V34.65h4.44V25h4.75v9.62h10.11v4.19H523.4Z" transform="translate(-43.72 -21.37)"/><path class="cls-1" d="M551.2,67.14A21.89,21.89,0,0,1,538,62.45l2.4-3.39a18.64,18.64,0,0,0,11,4.07c3.82,0,6.59-2,6.59-5.05V58c0-3.2-3.76-4.44-7.95-5.61-5-1.41-10.54-3.14-10.54-9v-.12c0-5.49,4.56-9.12,10.85-9.12a21.73,21.73,0,0,1,11.46,3.51l-2.15,3.58a18,18,0,0,0-9.44-3.09c-3.75,0-6.16,2-6.16,4.63v.12c0,3,3.95,4.19,8.2,5.49,4.93,1.48,10.23,3.39,10.23,9.12v.12C562.54,63.62,557.55,67.14,551.2,67.14Z" transform="translate(-43.72 -21.37)"/><line class="cls-2" x1="360.42" y1="51.79" x2="468.93" y2="51.79"/><path class="cls-3" d="M571,31.79l-1.43-2.05h-1.85v2h-1.3v-7h2.88c1.84,0,3,.94,3,2.49a2.23,2.23,0,0,1-1.49,2.2l1.61,2.3Zm-1.76-5.89h-1.52v2.78h1.52c1.14,0,1.73-.52,1.73-1.39S570.41,25.9,569.27,25.9Z" transform="translate(-43.72 -21.37)"/><circle class="cls-4" cx="525.45" cy="6.84" r="6.34"/></svg>