<?xml version="1.0" encoding="utf-8"?>
<!-- Generator: Adobe Illustrator 25.2.3, SVG Export Plug-In . SVG Version: 6.00 Build 0)  -->
<svg version="1.1" id="Layer_1" xmlns="http://www.w3.org/2000/svg" xmlns:xlink="http://www.w3.org/1999/xlink" x="0px" y="0px"
	 viewBox="0 0 24 24" style="enable-background:new 0 0 24 24;" xml:space="preserve">
<g transform="translate(0.000000,512.000000) scale(0.100000,-0.100000)">
	<path d="M20.5,5089.7C9.4,5076.2,0.2,5065,0,5064.7c-0.2-0.3,0.9-1.6,2.9-3.2c1.8-1.5,13.3-10.9,25.6-21.1
		c12.3-10.1,22.6-18.6,22.9-18.8c0.3-0.2,7.7-1.1,16.5-1.8c8.7-0.8,17.1-1.6,18.4-1.7l2.5-0.3l2.6,3.3c1.5,1.8,5.1,6.2,8,9.7
		l5.4,6.4l-6.6,17.4c-5.4,14.4-6.8,17.7-8.1,18.9c-2.8,2.7-48.9,40.6-49.3,40.6C40.8,5114,31.5,5103.1,20.5,5089.7z M62.3,5083.1
		l16.8-13.8l4.5-11.8c3.9-10.1,4.5-11.9,4-12.7c-0.3-0.5-2.8-3.5-5.5-6.7c-4.6-5.4-5-5.7-6.3-5.5c-0.8,0.1-6.3,0.6-12.2,1.1
		l-10.7,0.8l-16.5,13.6c-9,7.5-17,14-17.6,14.5l-1.1,0.9l13.7,16.8c7.5,9.2,13.8,16.8,14,16.8S53.1,5090.8,62.3,5083.1z"/>
	<path d="M126.2,5044.6c-1.6-0.7-5.2-4.9-19.9-23c-10.5-13-18.3-22.9-18.7-24c-0.8-2.2-0.4-4.8,1-6.6c2-2.5,19.8-16.4,21.6-16.8
		c2.2-0.5,4.9,0.1,6.4,1.6c2.1,1.9,35.9,42.9,36.8,44.5c1,1.9,1,5,0,7.1c-0.6,1.2-3.6,4-10.2,9.2
		C131.6,5045.9,130.3,5046.5,126.2,5044.6z"/>
	<path d="M145.3,4993.2c-7.7-9.3-10.1-12.3-10.1-12.7c0-0.2,3-8.3,6.7-17.9l6.7-17.6l25.3-20.6c19.6-16,25.4-20.5,25.7-20
		c0.3,0.4,9.5,11.6,20.4,24.8c11,13.3,20,24.3,20.1,24.5c0.1,0.2-11.7,10.1-26.1,21.8l-26.2,21.5l-18.2,1.5
		c-10,0.8-18.3,1.5-18.5,1.5C151,4999.9,148.3,4996.9,145.3,4993.2z M173.5,4984.3c6-0.5,11.5-1,12.2-1c1,0,5.7-3.6,18.6-14.4
		c9.5-7.9,17.3-14.5,17.3-14.7c0-0.7-26.9-32.8-27.4-32.8c-0.3,0-8,6.2-17.1,13.7l-16.5,13.7l-4.4,11.7l-4.4,11.7l5.2,6.5
		c2.9,3.6,5.3,6.5,5.4,6.5C162.5,4985.3,167.5,4984.9,173.5,4984.3z"/>
	<path d="M58.4,4980c-3.1-1.6-5.7-3.1-6-3.4c-0.6-0.6,4.6-8.2,10.2-14.6c9-10.5,21.9-20.6,34-26.7c1.7-0.8,3.2-1.5,3.4-1.5
		c0.4,0,5.4,12.3,5.4,13.3c0,0.2-1.4,1-3,1.8c-7.9,4-15.8,9.7-23.1,16.6c-4.5,4.4-11,11.9-13.2,15.5c-0.6,1-1.4,1.8-1.7,1.8
		C64.2,4982.9,61.5,4981.6,58.4,4980z"/>
	<path d="M33.8,4966.7c-3-1.7-5.5-3.2-5.5-3.4c0-0.2,1.5-2.6,3.4-5.3c11-16,25.6-30.1,41.5-40c4.8-3,16.2-8.9,17.1-8.9
		c0.8,0,5.2,11.9,4.4,12.1c-0.3,0.1-2.6,1.3-5.1,2.5c-19.3,10.2-35.3,24.2-46.9,41.5c-1.6,2.4-3.1,4.4-3.3,4.4
		C39.4,4969.6,36.7,4968.3,33.8,4966.7z"/>
	<path d="M9.7,4954c-3.2-1.7-5.9-3.2-6-3.4c-0.5-0.5,7.7-12.4,13.1-19.2c6-7.6,18.2-19.8,25.3-25.5c6.2-4.9,14.5-10.6,21.2-14.6
		c6.2-3.6,16.6-8.6,17-8.2c0.4,0.4,5.3,12.9,5.1,13c0,0.1-2.8,1.5-6.2,3.1c-23.6,11.4-44.4,29.7-59.5,52.1c-2.1,3.1-3.9,5.6-4.1,5.7
		C15.6,4957,12.8,4955.7,9.7,4954z"/>
</g>
</svg>
