<?xml version="1.0" encoding="utf-8"?>
<!-- Generator: Adobe Illustrator 25.2.3, SVG Export Plug-In . SVG Version: 6.00 Build 0)  -->
<svg version="1.1" id="Layer_1" xmlns="http://www.w3.org/2000/svg" xmlns:xlink="http://www.w3.org/1999/xlink" x="0px" y="0px"
	 viewBox="0 0 24 23.1" style="enable-background:new 0 0 24 23.1;" xml:space="preserve">
<g transform="translate(0.000000,512.000000) scale(0.100000,-0.100000)">
	<path d="M20.5,5095.6C9.4,5082.2,0.2,5071,0,5070.7c-0.2-0.3,0.9-1.6,2.9-3.2c1.8-1.5,13.3-10.9,25.6-21.1
		c12.3-10.1,22.6-18.6,22.9-18.8c0.3-0.2,7.7-1.1,16.5-1.8c8.7-0.8,17.1-1.6,18.4-1.7l2.5-0.3l2.6,3.3c1.5,1.8,5.1,6.2,8,9.7
		l5.4,6.4l-6.6,17.4c-5.4,14.4-6.8,17.7-8.1,18.9c-2.8,2.7-48.9,40.6-49.3,40.6C40.8,5120,31.5,5109,20.5,5095.6z M62.3,5089.1
		l16.8-13.8l4.5-11.8c3.9-10.1,4.5-11.9,4-12.7c-0.3-0.5-2.8-3.5-5.5-6.7c-4.6-5.4-5-5.7-6.3-5.5c-0.8,0.1-6.3,0.6-12.2,1.1
		l-10.7,0.8L36.3,5054c-9,7.5-17,14-17.6,14.5l-1.1,0.9l13.7,16.8c7.5,9.2,13.8,16.8,14,16.8S53.1,5096.7,62.3,5089.1z"/>
	<path d="M155.7,5107.1c-4-1.1-6.5-2.6-9.7-5.8c-4.6-4.6-4.6-4.6-0.9-7.5c1.7-1.4,3.2-2.5,3.4-2.5c0.1,0,1.5,1.3,3,2.9
		c3.4,3.6,5.9,4.9,9.6,4.9c6.1,0,9.7-4,8.7-10c-0.6-4.3-3.2-7.2-16.5-18.6L141,5060l0-3.7v-3.8h19.7h19.7v4.1v4.1h-12.6
		c-6.9,0-12.6,0.1-12.6,0.4c0,0.2,3.1,2.9,6.8,5.9c9.9,8.1,14,12.3,16,16.3c1.5,3.1,1.7,3.7,1.7,8c0,4.1-0.1,5-1.4,7.4
		c-1.7,3.4-4.9,6.3-8.5,7.7C166.2,5107.8,159.3,5108.1,155.7,5107.1z"/>
	<path d="M202.7,5107.1c-8.3-2.2-13.2-8.2-12.5-15.3c0.4-4.4,2.6-7.9,6.3-10.2l1.4-0.8l-2.1-1.3c-5.1-3-7.4-7.3-7-13.1
		c0.3-4.3,1.4-6.7,4.4-9.5c2.8-2.6,4.4-3.4,8.9-4.6c8.5-2.1,17.7-0.4,23,4.3c3.3,3,4.5,5.3,4.8,9.8c0.4,5.8-1.5,9.3-6.7,12.6
		l-2.7,1.7l1.2,0.8c6.9,4.4,8.4,13.9,3,20.1C220,5106.8,210.6,5109.2,202.7,5107.1z M214.2,5098.7c8.3-3.8,4.5-14.6-5.1-14.6
		c-9.6,0-13.5,10.8-5.1,14.6C206.5,5099.9,211.5,5099.9,214.2,5098.7z M215.4,5075.1c4.6-2.3,6.3-6.1,4.6-10.2
		c-0.8-1.8-3.1-3.8-5.6-4.6c-3-1-8.7-0.7-11.5,0.6c-7.7,3.6-6.2,12.6,2.5,14.9C207.6,5076.5,213.6,5076,215.4,5075.1z"/>
	<path d="M126.2,5050.6c-1.6-0.7-5.2-4.9-19.9-23c-10.5-13-18.3-22.9-18.7-24c-0.8-2.2-0.4-4.8,1-6.6c2-2.5,19.8-16.4,21.6-16.8
		c2.2-0.5,4.9,0.1,6.4,1.6c2.1,1.9,35.9,42.9,36.8,44.5c1,1.9,1,5,0,7.1c-0.6,1.2-3.6,4-10.2,9.2
		C131.6,5051.8,130.3,5052.5,126.2,5050.6z"/>
	<path d="M145.3,4999.2c-7.7-9.3-10.1-12.3-10.1-12.7c0-0.2,3-8.3,6.7-17.9l6.7-17.6l25.3-20.6c19.6-16,25.4-20.5,25.7-20
		c0.3,0.4,9.5,11.6,20.4,24.8c11,13.3,20,24.3,20.1,24.5c0.1,0.2-11.7,10.1-26.1,21.8l-26.2,21.5l-18.2,1.5
		c-10,0.8-18.3,1.5-18.5,1.5C151,5005.8,148.3,5002.8,145.3,4999.2z M173.5,4990.3c6-0.5,11.5-1,12.2-1c1,0,5.7-3.6,18.6-14.4
		c9.5-7.9,17.3-14.5,17.3-14.7c0-0.7-26.9-32.8-27.4-32.8c-0.3,0-8,6.2-17.1,13.7l-16.5,13.7l-4.4,11.7l-4.4,11.7l5.2,6.5
		c2.9,3.6,5.3,6.5,5.4,6.5C162.5,4991.3,167.5,4990.8,173.5,4990.3z"/>
	<path d="M58.4,4985.9c-3.1-1.6-5.7-3.1-6-3.4c-0.6-0.6,4.6-8.2,10.2-14.6c9-10.5,21.9-20.6,34-26.7c1.7-0.8,3.2-1.5,3.4-1.5
		c0.4,0,5.4,12.3,5.4,13.3c0,0.2-1.4,1-3,1.8c-7.9,4-15.8,9.7-23.1,16.6c-4.5,4.4-11,11.9-13.2,15.5c-0.6,1-1.4,1.8-1.7,1.8
		C64.2,4988.8,61.5,4987.5,58.4,4985.9z"/>
	<path d="M33.8,4972.7c-3-1.7-5.5-3.2-5.5-3.4c0-0.2,1.5-2.6,3.4-5.3c11-16,25.6-30.1,41.5-40c4.8-3,16.2-8.9,17.1-8.9
		c0.8,0,5.2,11.9,4.4,12.1c-0.3,0.1-2.6,1.3-5.1,2.5c-19.3,10.2-35.3,24.2-46.9,41.5c-1.6,2.4-3.1,4.4-3.3,4.4
		C39.4,4975.6,36.7,4974.3,33.8,4972.7z"/>
	<path d="M9.7,4960c-3.2-1.7-5.9-3.2-6-3.4c-0.5-0.5,7.7-12.4,13.1-19.2c6-7.6,18.2-19.8,25.3-25.5c6.2-4.9,14.5-10.6,21.2-14.6
		c6.2-3.6,16.6-8.6,17-8.2c0.4,0.4,5.3,12.9,5.1,13c0,0.1-2.8,1.5-6.2,3.1c-23.6,11.4-44.4,29.7-59.5,52.1c-2.1,3.1-3.9,5.6-4.1,5.7
		C15.6,4963,12.8,4961.7,9.7,4960z"/>
</g>
</svg>
