<?xml version="1.0" encoding="utf-8"?>
<!-- Generator: Adobe Illustrator 25.2.3, SVG Export Plug-In . SVG Version: 6.00 Build 0)  -->
<svg version="1.1" id="Layer_1" xmlns="http://www.w3.org/2000/svg" xmlns:xlink="http://www.w3.org/1999/xlink" x="0px" y="0px"
	 viewBox="0 0 24 24" style="enable-background:new 0 0 24 24;" xml:space="preserve">
<g transform="translate(0.000000,1772.000000) scale(0.100000,-0.100000)">
	<path d="M52.8,17719.7c-5.5-0.5-10.2-3.9-11.9-8.7c-0.7-2-0.7,0.4-0.7-37.6v-34.8l35.3,0l35.3,0l0,16.3l0,16.3h1.5h1.5v7.6v7.6
		h-1.5h-1.5v10.3c0,5.9,0,10.7-0.1,11.4c-0.3,3-1.7,5.8-4.1,7.9c-2,1.8-4.1,2.9-7.1,3.5c-1.1,0.2-1.2,0.2-23.4,0.3
		C63.8,17719.8,53.3,17719.8,52.8,17719.7z"/>
	<path d="M129.3,17678.9c-2.1-0.9-2.5-3.5-1-5.1c0.5-0.5,0.8-0.7,2-1c0.8-0.2,21.1-6.1,45-13.1c30.9-8.9,43.8-12.6,44.3-12.6
		c1.8,0,3.1,1.3,3.1,3.1c0,1.3-0.7,2.4-1.8,2.9c-0.3,0.1-20.6,6.1-45.2,13.2c-29.3,8.5-44.8,12.9-45.3,12.9
		C130.2,17679.2,129.6,17679,129.3,17678.9z"/>
	<path d="M74.3,17635.5c-1.3-0.5-2.3-1.4-2.9-2.5c-0.8-1.6-67.3-144.5-67.7-145.6c-0.5-1.2-0.5-1.4-0.5-2.4c0.1-1.4,0.6-2.5,1.6-3.5
		c2.2-2,5.8-1.7,7.5,0.6c0.2,0.3,14.6,31.1,32,68.4c17.4,37.3,31.6,67.8,31.7,67.7c0-0.1,14.1-30.2,31.2-66.9
		c17.1-36.7,31.3-67.3,31.6-67.9c1-2,2.4-3.1,4.4-3.2c2.4-0.2,4.4,1.2,5.2,3.4c0.3,0.8,0.3,2.3,0.1,3.1
		c-0.1,0.3-15.5,33.5-34.2,73.7c-37.1,79.8-34.3,73.9-36,74.8C77.3,17635.7,75.2,17635.9,74.3,17635.5z"/>
</g>
</svg>
