<svg width="1333.3" height="1333.3" version="1.1" viewBox="0 0 1333.3 1333.3" xml:space="preserve"
    xmlns="http://www.w3.org/2000/svg">
    <defs>
        <clipPath id="clipPath1005">
            <path fill="white" d="m0 1e3h1e3v-1e3h-1e3z"/>
        </clipPath>
    </defs>
    <g transform="matrix(1.3333 0 0 -1.3333 0 1333.3)">
        <g clip-path="url(#clipPath1005)">
            <g transform="translate(501.71 78.52)">
                <path fill="white" d="m0 0c-232.78 0-421.48 188.7-421.48 421.48 0 232.78 188.7 421.48 421.48 421.48 232.78 0 421.48-188.7 421.48-421.48 0-232.78-188.7-421.48-421.48-421.48m-1.71 921.48c-276.14 0-500-223.86-500-500 0-276.14 223.86-500 500-500 276.14 0 500 223.86 500 500 0 276.14-223.86 500-500 500"/>
            </g>
        </g>
    </g>
</svg>
