<svg width="1333.3" height="1333.3" version="1.1" viewBox="0 0 1333.3 1333.3" xml:space="preserve" xmlns="http://www.w3.org/2000/svg"><defs><clipPath id="clipPath230"><path fill="white" d="m0 1e3h1e3v-1e3h-1e3z"/></clipPath></defs><g transform="matrix(1.3333 0 0 -1.3333 0 1333.3)"><g clip-path="url(#clipPath230)"><g transform="translate(961.06 461.15)"><path fill="white" d="m0 0h-922.07c-21.415 0-38.937 17.521-38.937 38.937 0 21.415 17.522 38.937 38.937 38.937h922.07c21.415 0 38.937-17.522 38.937-38.937 0-21.416-17.522-38.937-38.937-38.937"/></g><g transform="translate(538.96 961.12)"><path fill="white" d="m0 0v-922.07c0-21.415-17.521-38.937-38.937-38.937-21.415 0-38.936 17.522-38.936 38.937v922.07c0 21.415 17.521 38.937 38.936 38.937 21.416 0 38.937-17.522 38.937-38.937"/></g></g></g></svg>
