<svg width="1333.3" height="1333.3" version="1.1" viewBox="0 0 1333.3 1333.3" xml:space="preserve" xmlns="http://www.w3.org/2000/svg"><defs><clipPath id="clipPath16"><path fill="white" d="m0 1e3h1e3v-1e3h-1e3z"/></clipPath></defs><g transform="matrix(1.3333 0 0 -1.3333 0 1333.3)"><g clip-path="url(#clipPath16)"><g transform="translate(66.514 988.55)"><path fill="white" d="m0 0 922.08-922.08c15.14-15.141 15.14-39.918 0-55.059l-7e-3 -6e-3c-15.141-15.141-39.918-15.141-55.059 0l-922.08 922.08c-15.141 15.141-15.141 39.917 0 55.058l7e-3 7e-3c15.141 15.141 39.917 15.141 55.058 0"/></g><g transform="translate(11.498 66.421)"><path fill="white" d="m0 0 922.08 922.08c15.141 15.141 39.918 15.141 55.059 0l6e-3 -7e-3c15.141-15.141 15.141-39.917 0-55.058l-922.08-922.08c-15.141-15.141-39.917-15.141-55.058 0l-7e-3 6e-3c-15.141 15.142-15.141 39.918 0 55.059"/></g></g></g></svg>
