<svg width="1333.3" height="1333.3" version="1.1" viewBox="0 0 1333.3 1333.3" xml:space="preserve" xmlns="http://www.w3.org/2000/svg"><defs><clipPath id="clipPath126"><path fill="white" d="m0 1e3h1e3v-1e3h-1e3z"/></clipPath></defs><g transform="matrix(1.3333 0 0 -1.3333 0 1333.3)"><g clip-path="url(#clipPath126)"><g transform="translate(375.72 461.15)"><path fill="white" d="m0 0h-351.09c-13.551 0-24.638 11.087-24.638 24.638v28.598c0 13.551 11.087 24.638 24.638 24.638h351.09c13.551 0 24.638-11.087 24.638-24.638v-28.598c0-13.551-11.087-24.638-24.638-24.638"/></g><g transform="translate(538.94 975.36)"><path fill="white" d="m0 0v-351.09c0-13.551-11.087-24.638-24.638-24.638h-28.598c-13.551 0-24.638 11.087-24.638 24.638v351.09c0 13.551 11.087 24.638 24.638 24.638h28.598c13.551 0 24.638-11.087 24.638-24.638"/></g><g transform="translate(538.94 375.72)"><path fill="white" d="m0 0v-351.09c0-13.551-11.087-24.638-24.638-24.638h-28.598c-13.551 0-24.638 11.087-24.638 24.638v351.09c0 13.551 11.087 24.638 24.638 24.638h28.598c13.551 0 24.638-11.087 24.638-24.638"/></g><g transform="translate(975.36 461.15)"><path fill="white" d="m0 0h-351.09c-13.551 0-24.638 11.087-24.638 24.638v28.598c0 13.551 11.087 24.638 24.638 24.638h351.09c13.551 0 24.638-11.087 24.638-24.638v-28.598c0-13.551-11.087-24.638-24.638-24.638"/></g><g transform="translate(539.06 500)"><path fill="white" d="m0 0c0-21.571-17.486-39.058-39.058-39.058-21.57 0-39.057 17.487-39.057 39.058s17.487 39.058 39.057 39.058c21.572 0 39.058-17.487 39.058-39.058"/></g></g></g></svg>
