<?xml version="1.0" encoding="UTF-8"?>
<!-- 2022-11-16 10:18:48 Generated by QCAD 3.27.6 SVG Exporter -->
<svg width="13in" height="29in" viewBox="20 -69 13 29" version="1.1" xmlns="http://www.w3.org/2000/svg" style="stroke-linecap:round;stroke-linejoin:round;fill:none">
    <g transform="scale(1,-1)">
        <!-- Line -->
        <path d="M20,69 L21,69 " style="stroke:#FFFFFF;stroke-width:0.0098;"/>
        <!-- Line -->
        <path d="M20,40 L21,40 " style="stroke:#FFFFFF;stroke-width:0.0098;"/>
        <!-- Line -->
        <path d="M32,40 L33,40 " style="stroke:#FFFFFF;stroke-width:0.0098;"/>
        <!-- Line -->
        <path d="M32,69 L33,69 " style="stroke:#FFFFFF;stroke-width:0.0098;"/>
        <!-- Hatch -->
        <path d="M21,69 L21,40 L20,40 L20,69 Z" style="fill:#FFFFFF;fill-rule:evenodd;"/>
        <!-- Hatch -->
        <path d="M33,69 L33,40 L32,40 L32,69 Z" style="fill:#FFFFFF;fill-rule:evenodd;"/>
        <!-- Polyline -->
        <path d="M20,69 L20,40" style="stroke:#FFFFFF;stroke-width:0.05;"/>
        <!-- Polyline -->
        <path d="M21,69 L21,40" style="stroke:#FFFFFF;stroke-width:0.05;"/>
        <!-- Polyline -->
        <path d="M32,69 L32,40" style="stroke:#FFFFFF;stroke-width:0.05;"/>
        <!-- Polyline -->
        <path d="M33,69 L33,40" style="stroke:#FFFFFF;stroke-width:0.05;"/>
        <!-- Polyline -->
        <path d="M20.5,59 L32.5,59" class="MtM" style="stroke:#545454;stroke-width:0.05;"/>
        <!-- Polyline -->
        <path d="M20,63 L33,63" class="OtO" style="stroke:#545454;stroke-width:0.05;"/>
        <!-- Polyline -->
        <path d="M21,55 L32,55" class="ItI" style="stroke:#545454;stroke-width:0.05;"/>
        <!-- Polyline -->
        <path d="M20,51 L32.5,51" class="MtO" style="stroke:#545454;stroke-width:0.05;"/>
        <!-- Polyline -->
        <path d="M21,47 L32.5,47" class="MtI" style="stroke:#545454;stroke-width:0.05;"/>
        <!-- Polyline -->
        <path d="M20.5,59 L21,58.7" class="MtM" style="stroke:#545454;stroke-width:0.05;"/>
        <!-- Polyline -->
        <path d="M20,63 L20.5,62.7" class="OtO" style="stroke:#545454;stroke-width:0.05;"/>
        <!-- Polyline -->
        <path d="M21,55 L21.5,54.7" class="ItI" style="stroke:#545454;stroke-width:0.05;"/>
        <!-- Polyline -->
        <path d="M20,51 L20.5,50.7" class="MtO" style="stroke:#545454;stroke-width:0.05;"/>
        <!-- Polyline -->
        <path d="M21,47 L21.5,46.7" class="MtI" style="stroke:#545454;stroke-width:0.05;"/>
        <!-- Polyline -->
        <path d="M20.5,59 L21,59.3" class="MtM" style="stroke:#545454;stroke-width:0.05;"/>
        <!-- Polyline -->
        <path d="M20,63 L20.5,63.3" class="OtO" style="stroke:#545454;stroke-width:0.05;"/>
        <!-- Polyline -->
        <path d="M21,55 L21.5,55.3" class="ItI" style="stroke:#545454;stroke-width:0.05;"/>
        <!-- Polyline -->
        <path d="M20,51 L20.5,51.3" class="MtO" style="stroke:#545454;stroke-width:0.05;"/>
        <!-- Polyline -->
        <path d="M21,47 L21.5,47.3" class="MtI" style="stroke:#545454;stroke-width:0.05;"/>
        <!-- Polyline -->
        <path d="M32.5,59 L32,58.7" class="MtM" style="stroke:#545454;stroke-width:0.05;"/>
        <!-- Polyline -->
        <path d="M33,62.9946 L32.5058,62.6981" class="OtO" style="stroke:#545454;stroke-width:0.05;"/>
        <!-- Polyline -->
        <path d="M32,55 L31.5,54.7" class="ItI" style="stroke:#545454;stroke-width:0.05;"/>
        <!-- Polyline -->
        <path d="M32.5,51 L32,50.7" class="MtO" style="stroke:#545454;stroke-width:0.05;"/>
        <!-- Polyline -->
        <path d="M32.5,47 L32,46.7" class="MtI" style="stroke:#545454;stroke-width:0.05;"/>
        <!-- Polyline -->
        <path d="M32.5,59 L32,59.3" class="MtM" style="stroke:#545454;stroke-width:0.05;"/>
        <!-- Polyline -->
        <path d="M32.9947,63.0068 L32.4947,63.3068" class="OtO" style="stroke:#545454;stroke-width:0.05;"/>
        <!-- Polyline -->
        <path d="M32,55 L31.5,55.3" class="ItI" style="stroke:#545454;stroke-width:0.05;"/>
        <!-- Polyline -->
        <path d="M32.5,51 L32,51.3" class="MtO" style="stroke:#545454;stroke-width:0.05;"/>
        <!-- Polyline -->
        <path d="M32.5,47 L32,47.3" class="MtI" style="stroke:#545454;stroke-width:0.05;"/>
    </g>
</svg>
